<?xml version="1.0" standalone="no"?>
<!DOCTYPE svg PUBLIC "-//W3C//DTD SVG 20010904//EN"
 "http://www.w3.org/TR/2001/REC-SVG-20010904/DTD/svg10.dtd">
<svg version="1.0" xmlns="http://www.w3.org/2000/svg"
 width="260.000000pt" height="260.000000pt" viewBox="0 0 260.000000 260.000000"
 preserveAspectRatio="xMidYMid meet">
<metadata>
Created by potrace 1.11, written by Peter Selinger 2001-2013
</metadata>
<g transform="translate(0.000000,260.000000) scale(0.100000,-0.100000)"
fill="#000000" stroke="none">
<path d="M685 2206 c-11 -7 -123 -71 -248 -141 -126 -70 -225 -131 -220 -136
9 -9 1028 -597 1058 -611 17 -8 64 16 263 133 133 79 242 145 242 148 0 6
-1063 621 -1071 620 -2 0 -13 -6 -24 -13z"/>
<path d="M182 1284 l3 -628 515 -298 c283 -163 527 -304 542 -313 l28 -16 0
628 0 628 -477 275 c-262 151 -507 292 -545 313 l-68 39 2 -628z m644 135
c192 -110 355 -208 362 -217 18 -23 15 -76 -5 -94 -10 -8 -71 -45 -135 -82
-65 -37 -118 -69 -118 -72 0 -2 32 -24 70 -49 l71 -45 -41 -60 c-26 -38 -45
-58 -53 -53 -7 3 -51 33 -99 65 -48 32 -90 58 -94 58 -9 0 -194 -104 -194
-110 0 -3 128 -79 285 -169 157 -91 285 -169 285 -174 0 -8 -53 -102 -65 -115
-4 -5 -684 386 -707 406 -18 15 -23 56 -12 86 3 8 62 48 130 87 69 40 127 75
129 79 3 4 -24 27 -60 50 -36 23 -65 47 -65 52 0 5 16 34 35 64 l35 54 97 -65
c54 -36 103 -65 109 -65 14 0 194 102 194 110 -1 3 -129 78 -285 168 -157 90
-285 167 -285 172 0 7 62 119 66 120 1 0 159 -90 350 -201z"/>
<path d="M1775 1556 c-11 -7 -122 -71 -247 -141 l-228 -128 0 -628 0 -628 213
126 c116 69 229 135 249 146 l38 22 0 623 c0 342 -1 622 -2 621 -2 0 -12 -6
-23 -13z"/>
</g>
</svg>
